<svg height="512" viewBox="0 0 64 64" width="512" xmlns="http://www.w3.org/2000/svg"><g data-name="file network-data-computer-network-currency"><path d="M13 2H3a1 1 0 00-1 1v6a1 1 0 001 1h4v2H4v2h8v-2H9v-2h4a1 1 0 001-1V3a1 1 0 00-1-1zm-1 6H4V4h8zM61 2H51a1 1 0 00-1 1v6a1 1 0 001 1h4v2h-3v2h8v-2h-3v-2h4a1 1 0 001-1V3a1 1 0 00-1-1zm-1 6h-8V4h8zM13 50H3a1 1 0 00-1 1v6a1 1 0 001 1h4v2H4v2h8v-2H9v-2h4a1 1 0 001-1v-6a1 1 0 00-1-1zm-1 6H4v-4h8zM61 50H51a1 1 0 00-1 1v6a1 1 0 001 1h4v2h-3v2h8v-2h-3v-2h4a1 1 0 001-1v-6a1 1 0 00-1-1zm-1 6h-8v-4h8zM47 24h-5v-1a3.009 3.009 0 00-3-3H26v-1a1 1 0 00-1-1h-8a1 1 0 00-1 1v26a1 1 0 001 1h30a1 1 0 001-1V25a1 1 0 00-1-1zm-8-2a1 1 0 011 1v1h-5v-1a3 3 0 00-.18-1zm-13 0h6a1 1 0 011 1v1h-7zm20 22H18V20h6v5a1 1 0 001 1h21z"/><path d="M24 30h20v2H24zM24 34h20v2H24zM24 38h20v2H24zM20 30h2v2h-2zM20 34h2v2h-2zM20 38h2v2h-2zM6.976 15.447a30.02 30.02 0 000 33.106l1.668-1.106a28.012 28.012 0 010-30.894zM32 60a27.863 27.863 0 01-15.447-4.644l-1.106 1.668a30.02 30.02 0 0033.106 0l-1.106-1.668A27.863 27.863 0 0132 60zM55.356 16.553a28.012 28.012 0 010 30.894l1.668 1.106a30.02 30.02 0 000-33.106zM15.447 6.976l1.106 1.668a28.012 28.012 0 0130.894 0l1.106-1.668a30.02 30.02 0 00-33.106 0z"/></g></svg>